<svg width="25" height="25" viewBox="0 0 25 25" fill="none" xmlns="http://www.w3.org/2000/svg">
<mask id="mask0_114_546" style="mask-type:alpha" maskUnits="userSpaceOnUse" x="0" y="0" width="25" height="25">
<rect x="0.441406" y="0.617676" width="24.1176" height="24.1176" fill="#D9D9D9"/>
</mask>
<g mask="url(#mask0_114_546)">
<path d="M5.46586 22.7255C4.91316 22.7255 4.44002 22.5287 4.04643 22.1351C3.65285 21.7415 3.45605 21.2684 3.45605 20.7157V6.64705C3.45605 6.09435 3.65285 5.62121 4.04643 5.22763C4.44002 4.83404 4.91316 4.63725 5.46586 4.63725H6.47076V2.62744H8.48056V4.63725H16.5198V2.62744H18.5296V4.63725H19.5345C20.0872 4.63725 20.5603 4.83404 20.9539 5.22763C21.3475 5.62121 21.5443 6.09435 21.5443 6.64705V20.7157C21.5443 21.2684 21.3475 21.7415 20.9539 22.1351C20.5603 22.5287 20.0872 22.7255 19.5345 22.7255H5.46586ZM5.46586 20.7157H19.5345V10.6667H5.46586V20.7157ZM5.46586 8.65685H19.5345V6.64705H5.46586V8.65685ZM12.5002 14.6863C12.2155 14.6863 11.9768 14.59 11.7842 14.3974C11.5916 14.2047 11.4953 13.9661 11.4953 13.6814C11.4953 13.3966 11.5916 13.158 11.7842 12.9654C11.9768 12.7728 12.2155 12.6765 12.5002 12.6765C12.7849 12.6765 13.0236 12.7728 13.2162 12.9654C13.4088 13.158 13.5051 13.3966 13.5051 13.6814C13.5051 13.9661 13.4088 14.2047 13.2162 14.3974C13.0236 14.59 12.7849 14.6863 12.5002 14.6863ZM8.48056 14.6863C8.19584 14.6863 7.95718 14.59 7.76457 14.3974C7.57197 14.2047 7.47566 13.9661 7.47566 13.6814C7.47566 13.3966 7.57197 13.158 7.76457 12.9654C7.95718 12.7728 8.19584 12.6765 8.48056 12.6765C8.76529 12.6765 9.00395 12.7728 9.19656 12.9654C9.38916 13.158 9.48547 13.3966 9.48547 13.6814C9.48547 13.9661 9.38916 14.2047 9.19656 14.3974C9.00395 14.59 8.76529 14.6863 8.48056 14.6863ZM16.5198 14.6863C16.2351 14.6863 15.9964 14.59 15.8038 14.3974C15.6112 14.2047 15.5149 13.9661 15.5149 13.6814C15.5149 13.3966 15.6112 13.158 15.8038 12.9654C15.9964 12.7728 16.2351 12.6765 16.5198 12.6765C16.8045 12.6765 17.0432 12.7728 17.2358 12.9654C17.4284 13.158 17.5247 13.3966 17.5247 13.6814C17.5247 13.9661 17.4284 14.2047 17.2358 14.3974C17.0432 14.59 16.8045 14.6863 16.5198 14.6863ZM12.5002 18.7059C12.2155 18.7059 11.9768 18.6096 11.7842 18.417C11.5916 18.2244 11.4953 17.9857 11.4953 17.701C11.4953 17.4162 11.5916 17.1776 11.7842 16.985C11.9768 16.7924 12.2155 16.6961 12.5002 16.6961C12.7849 16.6961 13.0236 16.7924 13.2162 16.985C13.4088 17.1776 13.5051 17.4162 13.5051 17.701C13.5051 17.9857 13.4088 18.2244 13.2162 18.417C13.0236 18.6096 12.7849 18.7059 12.5002 18.7059ZM8.48056 18.7059C8.19584 18.7059 7.95718 18.6096 7.76457 18.417C7.57197 18.2244 7.47566 17.9857 7.47566 17.701C7.47566 17.4162 7.57197 17.1776 7.76457 16.985C7.95718 16.7924 8.19584 16.6961 8.48056 16.6961C8.76529 16.6961 9.00395 16.7924 9.19656 16.985C9.38916 17.1776 9.48547 17.4162 9.48547 17.701C9.48547 17.9857 9.38916 18.2244 9.19656 18.417C9.00395 18.6096 8.76529 18.7059 8.48056 18.7059ZM16.5198 18.7059C16.2351 18.7059 15.9964 18.6096 15.8038 18.417C15.6112 18.2244 15.5149 17.9857 15.5149 17.701C15.5149 17.4162 15.6112 17.1776 15.8038 16.985C15.9964 16.7924 16.2351 16.6961 16.5198 16.6961C16.8045 16.6961 17.0432 16.7924 17.2358 16.985C17.4284 17.1776 17.5247 17.4162 17.5247 17.701C17.5247 17.9857 17.4284 18.2244 17.2358 18.417C17.0432 18.6096 16.8045 18.7059 16.5198 18.7059Z" fill="white"/>
</g>
</svg>
