<svg width="25" height="25" viewBox="0 0 25 25" fill="none" xmlns="http://www.w3.org/2000/svg">
<mask id="mask0_114_543" style="mask-type:alpha" maskUnits="userSpaceOnUse" x="0" y="0" width="25" height="25">
<rect x="0.441406" y="0.323242" width="24.1176" height="24.1176" fill="#D9D9D9"/>
</mask>
<g mask="url(#mask0_114_543)">
<path d="M20.4891 21.4261C18.3956 21.4261 16.3272 20.9697 14.2839 20.0569C12.2406 19.1442 10.3815 17.8504 8.70667 16.1755C7.03183 14.5007 5.73802 12.6416 4.82523 10.5983C3.91245 8.55501 3.45605 6.48658 3.45605 4.39304C3.45605 4.09157 3.55654 3.84034 3.75753 3.63936C3.95851 3.43838 4.20973 3.33789 4.5112 3.33789H8.58105C8.81553 3.33789 9.02489 3.41745 9.20912 3.57655C9.39335 3.73566 9.50222 3.92408 9.53571 4.14181L10.1889 7.65897C10.2224 7.92694 10.214 8.15305 10.1638 8.33728C10.1135 8.52151 10.0214 8.68062 9.88743 8.81461L7.45054 11.2766C7.78551 11.8963 8.18328 12.4951 8.64386 13.0729C9.10444 13.6507 9.61108 14.2076 10.1638 14.7435C10.683 15.2627 11.2273 15.7442 11.7967 16.1881C12.3662 16.6319 12.9691 17.0381 13.6056 17.4065L15.9671 15.045C16.1178 14.8943 16.3146 14.7812 16.5575 14.7058C16.8003 14.6305 17.039 14.6095 17.2735 14.643L20.7404 15.3465C20.9748 15.4135 21.1675 15.5349 21.3182 15.7107C21.4689 15.8866 21.5443 16.0834 21.5443 16.3011V20.371C21.5443 20.6725 21.4438 20.9237 21.2428 21.1247C21.0418 21.3256 20.7906 21.4261 20.4891 21.4261ZM6.49588 9.3673L8.15397 7.70921L7.72689 5.34769H5.49098C5.57472 6.03438 5.69196 6.71269 5.8427 7.38262C5.99343 8.05256 6.21116 8.71412 6.49588 9.3673ZM15.4898 18.3612C16.1429 18.6459 16.8087 18.872 17.487 19.0395C18.1653 19.207 18.8478 19.3158 19.5345 19.3661V17.1553L17.173 16.678L15.4898 18.3612Z" fill="white"/>
</g>
</svg>
