<svg width="48" height="48" viewBox="0 0 48 48" fill="none" xmlns="http://www.w3.org/2000/svg">
<mask id="mask0_43_68" style="mask-type:alpha" maskUnits="userSpaceOnUse" x="0" y="0" width="48" height="48">
<rect width="48" height="48" fill="#D9D9D9"/>
</mask>
<g mask="url(#mask0_43_68)">
<path d="M-0.143555 36.1435V33.345C-0.143555 32.015 0.562112 30.9344 1.97345 30.103C3.38445 29.272 5.23295 28.8565 7.51895 28.8565C7.88028 28.8565 8.22328 28.8629 8.54795 28.8755C8.87261 28.8882 9.19828 28.918 9.52495 28.965C9.24228 29.5674 9.02961 30.1794 8.88695 30.801C8.74428 31.423 8.67295 32.072 8.67295 32.748V36.1435H-0.143555ZM11.8564 36.1435V32.75C11.8564 31.6594 12.1501 30.6624 12.7374 29.759C13.3248 28.856 14.1598 28.0672 15.2424 27.3925C16.3251 26.7179 17.6151 26.2099 19.1124 25.8685C20.6101 25.5272 22.2381 25.3565 23.9964 25.3565C25.7888 25.3565 27.4318 25.5272 28.9254 25.8685C30.4191 26.2099 31.7091 26.7179 32.7954 27.3925C33.8781 28.0672 34.7068 28.856 35.2814 29.759C35.8561 30.6624 36.1434 31.6594 36.1434 32.75V36.1435H11.8564ZM39.3229 36.1435V32.745C39.3229 32.0514 39.2586 31.3969 39.1299 30.7815C39.0013 30.1659 38.7996 29.5617 38.5249 28.969C38.8516 28.9194 39.1776 28.8882 39.5029 28.8755C39.8283 28.8629 40.1606 28.8565 40.4999 28.8565C42.7993 28.8565 44.6481 29.2657 46.0464 30.084C47.4444 30.9024 48.1434 31.991 48.1434 33.35V36.1435H39.3229ZM15.2629 32.9045H32.7369V32.6045C32.6733 31.4109 31.8316 30.4424 30.2119 29.699C28.5923 28.9554 26.5216 28.5835 23.9999 28.5835C21.4783 28.5835 19.4076 28.9574 17.7879 29.705C16.1683 30.4524 15.3266 31.4355 15.2629 32.6545V32.9045ZM7.48095 27.3925C6.50294 27.3925 5.66428 27.0407 4.96495 26.337C4.26595 25.6337 3.91645 24.788 3.91645 23.8C3.91645 22.8074 4.26728 21.9614 4.96895 21.262C5.67095 20.5627 6.51461 20.213 7.49995 20.213C8.49061 20.213 9.33761 20.5629 10.0409 21.2625C10.7439 21.9619 11.0954 22.8142 11.0954 23.8195C11.0954 24.7949 10.7449 25.6342 10.0439 26.3375C9.34261 27.0409 8.48828 27.3925 7.48095 27.3925ZM40.4809 27.3925C39.5029 27.3925 38.6643 27.0407 37.9649 26.337C37.2659 25.6337 36.9164 24.788 36.9164 23.8C36.9164 22.8074 37.2673 21.9614 37.9689 21.262C38.6709 20.5627 39.5146 20.213 40.4999 20.213C41.4906 20.213 42.3376 20.5629 43.0409 21.2625C43.7439 21.9619 44.0954 22.8142 44.0954 23.8195C44.0954 24.7949 43.7449 25.6342 43.0439 26.3375C42.3426 27.0409 41.4883 27.3925 40.4809 27.3925ZM24.0059 23.8685C22.2976 23.8685 20.8456 23.2707 19.6499 22.075C18.4543 20.8794 17.8564 19.4274 17.8564 17.719C17.8564 15.983 18.4543 14.5262 19.6499 13.3485C20.8456 12.1705 22.2976 11.5815 24.0059 11.5815C25.7419 11.5815 27.1988 12.1705 28.3764 13.3485C29.5544 14.5262 30.1434 15.983 30.1434 17.719C30.1434 19.4274 29.5544 20.8794 28.3764 22.075C27.1988 23.2707 25.7419 23.8685 24.0059 23.8685ZM24.0234 20.6295C24.8424 20.6295 25.5293 20.3479 26.0839 19.7845C26.6389 19.2212 26.9164 18.5264 26.9164 17.7C26.9164 16.874 26.6361 16.1857 26.0754 15.635C25.5148 15.084 24.8288 14.8085 24.0174 14.8085C23.1964 14.8085 22.5043 15.0862 21.9409 15.6415C21.3773 16.1965 21.0954 16.8844 21.0954 17.705C21.0954 18.5197 21.3748 19.2109 21.9334 19.7785C22.4918 20.3459 23.1884 20.6295 24.0234 20.6295Z" fill="white"/>
</g>
</svg>
