<svg width="25" height="25" viewBox="0 0 25 25" fill="none" xmlns="http://www.w3.org/2000/svg">
<mask id="mask0_114_540" style="mask-type:alpha" maskUnits="userSpaceOnUse" x="0" y="0" width="25" height="25">
<rect x="0.441406" y="0.441406" width="24.1176" height="24.1176" fill="#D9D9D9"/>
</mask>
<g mask="url(#mask0_114_540)">
<path d="M12.5006 12.5002C13.0533 12.5002 13.5265 12.3034 13.9201 11.9098C14.3137 11.5162 14.5104 11.0431 14.5104 10.4904C14.5104 9.93769 14.3137 9.46455 13.9201 9.07096C13.5265 8.67738 13.0533 8.48058 12.5006 8.48058C11.9479 8.48058 11.4748 8.67738 11.0812 9.07096C10.6876 9.46455 10.4908 9.93769 10.4908 10.4904C10.4908 11.0431 10.6876 11.5162 11.0812 11.9098C11.4748 12.3034 11.9479 12.5002 12.5006 12.5002ZM12.5006 19.8862C14.5439 18.0104 16.0597 16.3063 17.0478 14.7738C18.036 13.2413 18.5301 11.8805 18.5301 10.6914C18.5301 8.8658 17.948 7.371 16.784 6.20699C15.62 5.04298 14.1922 4.46098 12.5006 4.46098C10.8091 4.46098 9.38126 5.04298 8.21725 6.20699C7.05324 7.371 6.47123 8.8658 6.47123 10.6914C6.47123 11.8805 6.96531 13.2413 7.95346 14.7738C8.94161 16.3063 10.4573 18.0104 12.5006 19.8862ZM12.5006 22.5492C9.80415 20.2547 7.79016 18.1235 6.45867 16.1555C5.12717 14.1876 4.46143 12.3662 4.46143 10.6914C4.46143 8.17911 5.26953 6.17768 6.88575 4.68708C8.50197 3.19647 10.3736 2.45117 12.5006 2.45117C14.6277 2.45117 16.4993 3.19647 18.1155 4.68708C19.7317 6.17768 20.5399 8.17911 20.5399 10.6914C20.5399 12.3662 19.8741 14.1876 18.5426 16.1555C17.2111 18.1235 15.1971 20.2547 12.5006 22.5492Z" fill="white"/>
</g>
</svg>
