<svg width="20" height="20" viewBox="0 0 20 20" fill="none" xmlns="http://www.w3.org/2000/svg">
<mask id="mask0_47_423" style="mask-type:alpha" maskUnits="userSpaceOnUse" x="0" y="0" width="20" height="20">
<rect width="20" height="20" fill="#D9D9D9"/>
</mask>
<g mask="url(#mask0_47_423)">
<path d="M9.99967 9.99996C10.458 9.99996 10.8504 9.83677 11.1768 9.51038C11.5031 9.18399 11.6663 8.79163 11.6663 8.33329C11.6663 7.87496 11.5031 7.4826 11.1768 7.15621C10.8504 6.82982 10.458 6.66663 9.99967 6.66663C9.54134 6.66663 9.14898 6.82982 8.82259 7.15621C8.4962 7.4826 8.33301 7.87496 8.33301 8.33329C8.33301 8.79163 8.4962 9.18399 8.82259 9.51038C9.14898 9.83677 9.54134 9.99996 9.99967 9.99996ZM9.99967 16.125C11.6941 14.5694 12.9511 13.1562 13.7705 11.8854C14.59 10.6145 14.9997 9.48607 14.9997 8.49996C14.9997 6.98607 14.517 5.74649 13.5518 4.78121C12.5865 3.81593 11.4025 3.33329 9.99967 3.33329C8.5969 3.33329 7.41287 3.81593 6.44759 4.78121C5.48231 5.74649 4.99967 6.98607 4.99967 8.49996C4.99967 9.48607 5.4094 10.6145 6.22884 11.8854C7.04829 13.1562 8.30523 14.5694 9.99967 16.125ZM9.99967 18.3333C7.76356 16.4305 6.09342 14.6632 4.98926 13.0312C3.88509 11.3993 3.33301 9.88885 3.33301 8.49996C3.33301 6.41663 4.00315 4.7569 5.34342 3.52079C6.6837 2.28468 8.23579 1.66663 9.99967 1.66663C11.7636 1.66663 13.3156 2.28468 14.6559 3.52079C15.9962 4.7569 16.6663 6.41663 16.6663 8.49996C16.6663 9.88885 16.1143 11.3993 15.0101 13.0312C13.9059 14.6632 12.2358 16.4305 9.99967 18.3333Z" fill="#1D3750"/>
</g>
</svg>
