<svg width="48" height="48" viewBox="0 0 48 48" fill="none" xmlns="http://www.w3.org/2000/svg">
<mask id="mask0_43_65" style="mask-type:alpha" maskUnits="userSpaceOnUse" x="0" y="0" width="48" height="48">
<rect width="48" height="48" fill="#D9D9D9"/>
</mask>
<g mask="url(#mask0_43_65)">
<path d="M23.9972 44.55C21.1609 44.55 18.4925 44.0121 15.9922 42.9365C13.4915 41.8608 11.315 40.398 9.4627 38.548C7.61003 36.698 6.14486 34.5215 5.0672 32.0185C3.9892 29.5155 3.4502 26.8456 3.4502 24.009C3.4502 21.1666 3.9892 18.4965 5.0672 15.9985C6.14486 13.5001 7.60903 11.323 9.4597 9.46695C11.3104 7.61095 13.4875 6.14412 15.9912 5.06645C18.4945 3.98879 21.1649 3.44995 24.0022 3.44995C26.8392 3.44995 29.509 3.98879 32.0117 5.06645C34.5147 6.14412 36.6912 7.61095 38.5412 9.46695C40.3915 11.323 41.8555 13.501 42.9332 16.001C44.0112 18.501 44.5502 21.1721 44.5502 24.0145C44.5502 26.8511 44.0117 29.5196 42.9347 32.02C41.8577 34.5206 40.3929 36.6971 38.5402 38.5495C36.6875 40.4021 34.5097 41.8653 32.0067 42.939C29.5037 44.013 26.8339 44.55 23.9972 44.55ZM24.0032 41.275C28.8189 41.275 32.9014 39.6015 36.2507 36.2545C39.6004 32.9075 41.2752 28.8266 41.2752 24.012C41.2752 19.1863 39.5994 15.0988 36.2477 11.7495C32.8964 8.39979 28.8129 6.72495 23.9972 6.72495C19.1815 6.72495 15.099 8.39979 11.7497 11.7495C8.40003 15.0988 6.7252 19.1843 6.7252 24.006C6.7252 28.8276 8.40103 32.9111 11.7527 36.2565C15.104 39.6021 19.1875 41.275 24.0032 41.275ZM24.0017 36.4185C20.5477 36.4185 17.6162 35.2125 15.2072 32.8005C12.7982 30.3881 11.5937 27.458 11.5937 24.01C11.5937 20.5616 12.7977 17.6301 15.2057 15.2155C17.614 12.8008 20.545 11.5935 23.9987 11.5935C27.4527 11.5935 30.3862 12.8003 32.7992 15.214C35.2122 17.6276 36.4187 20.5586 36.4187 24.007C36.4187 27.4553 35.2127 30.386 32.8007 32.799C30.3884 35.212 27.4554 36.4185 24.0017 36.4185ZM23.9987 33.1435C26.5397 33.1435 28.697 32.257 30.4707 30.484C32.2447 28.7113 33.1317 26.5545 33.1317 24.0135C33.1317 21.4725 32.2452 19.3131 30.4722 17.5355C28.6995 15.7575 26.5427 14.8685 24.0017 14.8685C21.4607 14.8685 19.3034 15.7575 17.5297 17.5355C15.7557 19.3131 14.8687 21.4725 14.8687 24.0135C14.8687 26.5545 15.7552 28.7113 17.5282 30.484C19.3009 32.257 21.4577 33.1435 23.9987 33.1435ZM23.9957 28.275C22.819 28.275 21.813 27.8585 20.9777 27.0255C20.1427 26.1928 19.7252 25.188 19.7252 24.011C19.7252 22.8343 20.1442 21.8258 20.9822 20.9855C21.8202 20.1451 22.8277 19.725 24.0047 19.725C25.1814 19.725 26.1874 20.1448 27.0227 20.9845C27.8577 21.8241 28.2752 22.8336 28.2752 24.013C28.2752 25.192 27.8562 26.1971 27.0182 27.0285C26.1802 27.8595 25.1727 28.275 23.9957 28.275Z" fill="white"/>
</g>
</svg>
