<svg width="42" height="42" viewBox="0 0 42 42" fill="none" xmlns="http://www.w3.org/2000/svg">
<g filter="url(#filter0_f_47_433)">
<path d="M14.643 30.1043L15.054 30.3477C16.7801 31.3721 18.7592 31.914 20.7775 31.9149H20.7817C26.9798 31.9149 32.024 26.8718 32.0265 20.6734C32.0276 17.6697 30.8591 14.8451 28.736 12.7204C27.6947 11.6725 26.4559 10.8416 25.0913 10.2757C23.7267 9.70986 22.2634 9.42028 20.7861 9.42375C14.5833 9.42375 9.53887 14.4663 9.53666 20.6644C9.5336 22.7808 10.1296 24.8549 11.2558 26.6469L11.5233 27.0721L10.3871 31.22L14.643 30.1043ZM7.13867 34.4335L9.0582 27.4251C7.87438 25.3741 7.25157 23.0473 7.25231 20.6635C7.25544 13.206 13.3242 7.13904 20.7819 7.13904C24.4008 7.14088 27.7977 8.54922 30.3523 11.1057C32.907 13.6622 34.3125 17.0603 34.3113 20.6743C34.308 28.1312 28.2382 34.1993 20.7817 34.1993H20.7758C18.5117 34.1984 16.2869 33.6304 14.3108 32.5528L7.13867 34.4335Z" fill="#B3B3B3"/>
</g>
<path d="M7 34.2945L8.91953 27.2861C7.73367 25.2301 7.11077 22.8979 7.11364 20.5244C7.11676 13.067 13.1856 7 20.6432 7C24.2622 7.00184 27.659 8.41018 30.2136 10.9667C32.7683 13.5232 34.1739 16.9213 34.1726 20.5353C34.1693 27.9922 28.0996 34.0602 20.643 34.0602H20.6371C18.373 34.0593 16.1482 33.4913 14.1721 32.4138L7 34.2945Z" fill="white"/>
<path d="M20.6469 9.2847C14.4441 9.2847 9.39968 14.3273 9.39747 20.5253C9.39442 22.6418 9.99042 24.7159 11.1166 26.5079L11.3841 26.9332L10.2479 31.0812L14.504 29.9652L14.915 30.2087C16.6411 31.2331 18.6202 31.7748 20.6385 31.7759H20.6427C26.8408 31.7759 31.8851 26.7328 31.8875 20.5343C31.8922 19.057 31.6038 17.5933 31.039 16.2282C30.4741 14.863 29.6441 13.6235 28.597 12.5813C27.5557 11.5334 26.3168 10.7025 24.9522 10.1366C23.5875 9.57077 22.1242 9.2812 20.6469 9.2847Z" fill="url(#paint0_linear_47_433)"/>
<path fill-rule="evenodd" clip-rule="evenodd" d="M17.2619 14.8703C17.0085 14.3074 16.7419 14.296 16.5012 14.2863L15.8532 14.2784C15.6278 14.2784 15.2615 14.363 14.9518 14.7013C14.6422 15.0396 13.7686 15.8574 13.7686 17.5206C13.7686 19.1838 14.98 20.7909 15.1488 21.0167C15.3176 21.2425 17.4874 24.7644 20.9235 26.1194C23.779 27.2455 24.3601 27.0215 24.9801 26.9652C25.6002 26.909 26.9802 26.1475 27.2617 25.3581C27.5432 24.5687 27.5434 23.8924 27.459 23.751C27.3746 23.6096 27.1492 23.5256 26.8108 23.3564C26.4725 23.1872 24.8108 22.3695 24.5009 22.2566C24.1911 22.1437 23.9658 22.0876 23.7402 22.4259C23.5146 22.7643 22.8675 23.5254 22.6702 23.751C22.4729 23.9766 22.276 24.0049 21.9376 23.8359C21.5993 23.667 20.5107 23.3099 19.2191 22.1582C18.2142 21.2622 17.5359 20.1556 17.3384 19.8174C17.1409 19.4793 17.3175 19.2961 17.487 19.1277C17.6387 18.9762 17.825 18.7329 17.9943 18.5356C18.1637 18.3383 18.2194 18.1972 18.3319 17.972C18.4445 17.7467 18.3884 17.5489 18.3038 17.3799C18.2192 17.2109 17.5624 15.5389 17.2619 14.8703Z" fill="white"/>
<defs>
<filter id="filter0_f_47_433" x="0.0766721" y="0.0770383" width="41.2969" height="41.4185" filterUnits="userSpaceOnUse" color-interpolation-filters="sRGB">
<feFlood flood-opacity="0" result="BackgroundImageFix"/>
<feBlend mode="normal" in="SourceGraphic" in2="BackgroundImageFix" result="shape"/>
<feGaussianBlur stdDeviation="3.531" result="effect1_foregroundBlur_47_433"/>
</filter>
<linearGradient id="paint0_linear_47_433" x1="20.4136" y1="10.6344" x2="20.5276" y2="29.8545" gradientUnits="userSpaceOnUse">
<stop stop-color="#57D163"/>
<stop offset="1" stop-color="#23B33A"/>
</linearGradient>
</defs>
</svg>
